<?xml version="1.0" encoding="UTF-8" standalone="no"?>
<!DOCTYPE svg PUBLIC "-//W3C//DTD SVG 1.1//EN" "http://www.w3.org/Graphics/SVG/1.1/DTD/svg11.dtd">
<svg version="1.1" xmlns="http://www.w3.org/2000/svg" xmlns:xlink="http://www.w3.org/1999/xlink" preserveAspectRatio="xMidYMid meet" viewBox="0 0 640 640" width="640" height="640"><defs><path d="M319.11 187.34L269.66 187.34L269.66 123.21L145.47 123.21L145.47 187.34C124.22 187.34 110.93 187.34 105.62 187.34C90.26 187.34 77.28 198.73 75.28 213.96C69.54 257.75 56.94 353.84 51.48 395.46C48.34 419.44 54.86 443.68 69.61 462.84C74.66 469.4 68.69 461.65 74.22 468.83C85.98 484.12 107.35 488.14 123.87 478.17C131.64 473.49 127.6 475.92 135.78 470.99C153.18 460.49 166.34 444.2 172.95 424.98C177.72 411.12 189.64 376.47 208.71 321.04L319.11 321.04" id="ahM53vQGn"></path><path d="M319.11 187.88L368.55 187.88L368.55 123.88L492.75 123.88L492.75 187.88C514 187.88 527.28 187.88 532.59 187.88C547.96 187.88 560.94 199.27 562.94 214.5C568.68 258.2 581.26 354.02 586.72 395.56C589.87 419.53 583.34 443.76 568.58 462.91C563.53 469.46 569.54 461.66 564.02 468.83C552.23 484.11 530.87 488.13 514.33 478.18C506.57 473.5 510.63 475.95 502.45 471.02C485.04 460.54 471.87 444.26 465.24 425.04C460.48 411.22 448.56 376.65 429.5 321.33L319.11 321.33" id="a4ydgWY6yG"></path><path d="M182.09 201.44L182.17 201.44L182.25 201.45L182.33 201.47L182.41 201.49L182.49 201.51L182.57 201.53L182.64 201.56L182.72 201.58L182.79 201.62L182.86 201.65L182.93 201.69L183 201.72L183.07 201.77L183.13 201.81L183.19 201.86L183.25 201.9L183.31 201.96L183.37 202.01L183.42 202.06L183.48 202.12L183.53 202.18L183.57 202.24L183.62 202.3L183.66 202.36L183.7 202.43L183.74 202.5L183.78 202.57L183.81 202.64L183.84 202.71L183.86 202.78L183.89 202.85L183.91 202.93L183.93 203.01L183.94 203.08L183.95 203.16L183.96 203.24L183.97 203.32L183.97 203.4L183.97 242.93L224.92 242.93L225 242.93L225.09 242.94L225.17 242.94L225.25 242.95L225.33 242.97L225.41 242.99L225.49 243.01L225.57 243.03L225.64 243.06L225.72 243.08L225.79 243.12L225.86 243.15L225.93 243.19L226 243.22L226.06 243.27L226.13 243.31L226.19 243.36L226.25 243.4L226.31 243.46L226.37 243.51L226.42 243.56L226.47 243.62L226.52 243.68L226.57 243.74L226.62 243.8L226.66 243.86L226.7 243.93L226.74 244L226.77 244.07L226.81 244.14L226.84 244.21L226.86 244.28L226.89 244.35L226.91 244.43L226.93 244.51L226.94 244.58L226.95 244.66L226.96 244.74L226.97 244.82L226.97 244.9L226.97 276.52L226.97 276.61L226.96 276.69L226.95 276.77L226.94 276.84L226.93 276.92L226.91 277L226.89 277.07L226.86 277.15L226.84 277.22L226.81 277.29L226.77 277.36L226.74 277.43L226.7 277.5L226.66 277.56L226.62 277.63L226.57 277.69L226.52 277.75L226.47 277.81L226.42 277.87L226.37 277.92L226.31 277.97L226.25 278.02L226.19 278.07L226.13 278.12L226.06 278.16L226 278.2L225.93 278.24L225.86 278.28L225.79 278.31L225.72 278.34L225.64 278.37L225.57 278.4L225.49 278.42L225.41 278.44L225.33 278.46L225.25 278.47L225.17 278.49L225.09 278.49L225 278.5L224.92 278.5L183.97 278.5L183.97 318.02L183.97 318.11L183.96 318.19L183.95 318.27L183.94 318.34L183.93 318.42L183.91 318.5L183.89 318.57L183.86 318.65L183.84 318.72L183.81 318.79L183.78 318.86L183.74 318.93L183.7 319L183.66 319.06L183.62 319.13L183.57 319.19L183.53 319.25L183.48 319.31L183.42 319.37L183.37 319.42L183.31 319.47L183.25 319.52L183.19 319.57L183.13 319.62L183.07 319.66L183 319.7L182.93 319.74L182.86 319.78L182.79 319.81L182.72 319.84L182.64 319.87L182.57 319.9L182.49 319.92L182.41 319.94L182.33 319.96L182.25 319.97L182.17 319.99L182.09 319.99L182.01 320L181.92 320L149.16 320L149.08 320L148.99 319.99L148.91 319.99L148.83 319.97L148.75 319.96L148.67 319.94L148.59 319.92L148.51 319.9L148.44 319.87L148.36 319.84L148.29 319.81L148.22 319.78L148.15 319.74L148.08 319.7L148.02 319.66L147.95 319.62L147.89 319.57L147.83 319.52L147.77 319.47L147.71 319.42L147.66 319.37L147.61 319.31L147.56 319.25L147.51 319.19L147.46 319.13L147.42 319.06L147.38 319L147.34 318.93L147.31 318.86L147.27 318.79L147.24 318.72L147.22 318.65L147.19 318.57L147.17 318.5L147.15 318.42L147.14 318.34L147.13 318.27L147.12 318.19L147.11 318.11L147.11 318.02L147.11 278.5L106.16 278.5L106.08 278.5L105.99 278.49L105.91 278.49L105.83 278.47L105.75 278.46L105.67 278.44L105.59 278.42L105.52 278.4L105.44 278.37L105.37 278.34L105.29 278.31L105.22 278.28L105.15 278.24L105.08 278.2L105.02 278.16L104.95 278.12L104.89 278.07L104.83 278.02L104.77 277.97L104.71 277.92L104.66 277.87L104.61 277.81L104.56 277.75L104.51 277.69L104.46 277.63L104.42 277.56L104.38 277.5L104.34 277.43L104.31 277.36L104.28 277.29L104.25 277.22L104.22 277.15L104.2 277.07L104.17 277L104.16 276.92L104.14 276.84L104.13 276.77L104.12 276.69L104.12 276.61L104.11 276.52L104.11 244.9L104.12 244.82L104.12 244.74L104.13 244.66L104.14 244.58L104.16 244.51L104.17 244.43L104.2 244.35L104.22 244.28L104.25 244.21L104.28 244.14L104.31 244.07L104.34 244L104.38 243.93L104.42 243.86L104.46 243.8L104.51 243.74L104.56 243.68L104.61 243.62L104.66 243.56L104.71 243.51L104.77 243.46L104.83 243.4L104.89 243.36L104.95 243.31L105.02 243.27L105.08 243.22L105.15 243.19L105.22 243.15L105.29 243.12L105.37 243.08L105.44 243.06L105.52 243.03L105.59 243.01L105.67 242.99L105.75 242.97L105.83 242.95L105.91 242.94L105.99 242.94L106.08 242.93L106.16 242.93L147.11 242.93L147.11 203.4L147.11 203.32L147.12 203.24L147.13 203.16L147.14 203.08L147.15 203.01L147.17 202.93L147.19 202.85L147.22 202.78L147.24 202.71L147.27 202.64L147.31 202.57L147.34 202.5L147.38 202.43L147.42 202.36L147.46 202.3L147.51 202.24L147.56 202.18L147.61 202.12L147.66 202.06L147.71 202.01L147.77 201.96L147.83 201.9L147.89 201.86L147.95 201.81L148.02 201.77L148.08 201.72L148.15 201.69L148.22 201.65L148.29 201.62L148.36 201.58L148.44 201.56L148.51 201.53L148.59 201.51L148.67 201.49L148.75 201.47L148.83 201.45L148.91 201.44L148.99 201.44L149.08 201.43L149.16 201.43L181.92 201.43L182.01 201.43L182.09 201.44Z" id="a4M0vjhNsO"></path><path d="M508.8 222.41C508.8 233.99 500 243.39 489.16 243.39C478.33 243.39 469.53 233.99 469.53 222.41C469.53 210.83 478.33 201.43 489.16 201.43C500 201.43 508.8 210.83 508.8 222.41Z" id="amF2RiMah"></path><path d="M508.8 299.02C508.8 310.6 500 320 489.16 320C478.33 320 469.53 310.6 469.53 299.02C469.53 287.44 478.33 278.04 489.16 278.04C500 278.04 508.8 287.44 508.8 299.02Z" id="aJoYg4Wlf"></path><path d="M466.39 260.71C466.39 272.29 457.59 281.7 446.76 281.7C435.92 281.7 427.13 272.29 427.13 260.71C427.13 249.13 435.92 239.73 446.76 239.73C457.59 239.73 466.39 249.13 466.39 260.71Z" id="f3gtwJ59da"></path><path d="M551.2 260.71C551.2 272.29 542.4 281.7 531.57 281.7C520.73 281.7 511.94 272.29 511.94 260.71C511.94 249.13 520.73 239.73 531.57 239.73C542.4 239.73 551.2 249.13 551.2 260.71Z" id="e1NZQXgGv"></path></defs><g><g><g><g><filter id="shadow2703081" x="41.71" y="114.21" width="287.4" height="379.41" filterUnits="userSpaceOnUse" primitiveUnits="userSpaceOnUse"><feFlood></feFlood><feComposite in2="SourceAlpha" operator="in"></feComposite><feGaussianBlur stdDeviation="1"></feGaussianBlur><feOffset dx="1" dy="1" result="afterOffset"></feOffset><feFlood flood-color="#727272" flood-opacity="0.5"></feFlood><feComposite in2="afterOffset" operator="in"></feComposite><feMorphology operator="dilate" radius="1"></feMorphology><feComposite in2="SourceAlpha" operator="out"></feComposite></filter><path d="M319.11 187.34L269.66 187.34L269.66 123.21L145.47 123.21L145.47 187.34C124.22 187.34 110.93 187.34 105.62 187.34C90.26 187.34 77.28 198.73 75.28 213.96C69.54 257.75 56.94 353.84 51.48 395.46C48.34 419.44 54.86 443.68 69.61 462.84C74.66 469.4 68.69 461.65 74.22 468.83C85.98 484.12 107.35 488.14 123.87 478.17C131.64 473.49 127.6 475.92 135.78 470.99C153.18 460.49 166.34 444.2 172.95 424.98C177.72 411.12 189.64 376.47 208.71 321.04L319.11 321.04" id="cKPtLG68k" fill="none" stroke="white" filter="url(#shadow2703081)"></path></g><use xlink:href="#ahM53vQGn" opacity="1" fill="#606060" fill-opacity="1"></use><g><use xlink:href="#ahM53vQGn" opacity="1" fill-opacity="0" stroke="#404040" stroke-width="14" stroke-opacity="1"></use></g><g><filter id="shadow14403018" x="41.71" y="114.21" width="287.4" height="379.41" filterUnits="userSpaceOnUse" primitiveUnits="userSpaceOnUse"><feFlood></feFlood><feComposite in2="SourceAlpha" operator="out"></feComposite><feGaussianBlur stdDeviation="1"></feGaussianBlur><feOffset dx="1" dy="1" result="afterOffset"></feOffset><feFlood flood-color="#8c8c8c" flood-opacity="0.8"></feFlood><feComposite in2="afterOffset" operator="in"></feComposite><feMorphology operator="dilate" radius="1"></feMorphology><feComposite in2="SourceAlpha" operator="in"></feComposite></filter><path d="M319.11 187.34L269.66 187.34L269.66 123.21L145.47 123.21L145.47 187.34C124.22 187.34 110.93 187.34 105.62 187.34C90.26 187.34 77.28 198.73 75.28 213.96C69.54 257.75 56.94 353.84 51.48 395.46C48.34 419.44 54.86 443.68 69.61 462.84C74.66 469.4 68.69 461.65 74.22 468.83C85.98 484.12 107.35 488.14 123.87 478.17C131.64 473.49 127.6 475.92 135.78 470.99C153.18 460.49 166.34 444.2 172.95 424.98C177.72 411.12 189.64 376.47 208.71 321.04L319.11 321.04" id="e1FZjnzPUz" fill="none" stroke="white" filter="url(#shadow14403018)"></path></g></g><g><g><filter id="shadow16191544" x="310.11" y="114.88" width="287.39" height="378.75" filterUnits="userSpaceOnUse" primitiveUnits="userSpaceOnUse"><feFlood></feFlood><feComposite in2="SourceAlpha" operator="in"></feComposite><feGaussianBlur stdDeviation="1"></feGaussianBlur><feOffset dx="1" dy="1" result="afterOffset"></feOffset><feFlood flood-color="#000000" flood-opacity="0.5"></feFlood><feComposite in2="afterOffset" operator="in"></feComposite><feMorphology operator="dilate" radius="1"></feMorphology><feComposite in2="SourceAlpha" operator="out"></feComposite></filter><path d="M319.11 187.88L368.55 187.88L368.55 123.88L492.75 123.88L492.75 187.88C514 187.88 527.28 187.88 532.59 187.88C547.96 187.88 560.94 199.27 562.94 214.5C568.68 258.2 581.26 354.02 586.72 395.56C589.87 419.53 583.34 443.76 568.58 462.91C563.53 469.46 569.54 461.66 564.02 468.83C552.23 484.11 530.87 488.13 514.33 478.18C506.57 473.5 510.63 475.95 502.45 471.02C485.04 460.54 471.87 444.26 465.24 425.04C460.48 411.22 448.56 376.65 429.5 321.33L319.11 321.33" id="boHBgkiAp" fill="none" stroke="white" filter="url(#shadow16191544)"></path></g><use xlink:href="#a4ydgWY6yG" opacity="1" fill="#606060" fill-opacity="1"></use><g><use xlink:href="#a4ydgWY6yG" opacity="1" fill-opacity="0" stroke="#404040" stroke-width="14" stroke-opacity="1"></use></g></g><g><use xlink:href="#a4M0vjhNsO" opacity="1" fill="#bababa" fill-opacity="1"></use></g><g><g><filter id="shadow5576707" x="460.53" y="192.43" width="58.26" height="60.96" filterUnits="userSpaceOnUse" primitiveUnits="userSpaceOnUse"><feFlood></feFlood><feComposite in2="SourceAlpha" operator="in"></feComposite><feGaussianBlur stdDeviation="1"></feGaussianBlur><feOffset dx="1" dy="1" result="afterOffset"></feOffset><feFlood flood-color="#727272" flood-opacity="0.5"></feFlood><feComposite in2="afterOffset" operator="in"></feComposite><feMorphology operator="dilate" radius="1"></feMorphology><feComposite in2="SourceAlpha" operator="out"></feComposite></filter><path d="M508.8 222.41C508.8 233.99 500 243.39 489.16 243.39C478.33 243.39 469.53 233.99 469.53 222.41C469.53 210.83 478.33 201.43 489.16 201.43C500 201.43 508.8 210.83 508.8 222.41Z" id="b7mcqQxXVr" fill="white" fill-opacity="1" filter="url(#shadow5576707)"></path></g><use xlink:href="#amF2RiMah" opacity="1" fill="#bababa" fill-opacity="1"></use></g><g><use xlink:href="#aJoYg4Wlf" opacity="1" fill="#bababa" fill-opacity="1"></use></g><g><use xlink:href="#f3gtwJ59da" opacity="1" fill="#bababa" fill-opacity="1"></use></g><g><use xlink:href="#e1NZQXgGv" opacity="1" fill="#bababa" fill-opacity="1"></use></g></g></g></svg>